<mxfile host="app.diagrams.net" modified="2023-07-15T05:22:40.800Z" agent="Mozilla/5.0 (Windows NT 10.0; Win64; x64) AppleWebKit/537.36 (KHTML, like Gecko) Chrome/93.0.4577.63 Safari/537.36 Edg/93.0.961.47" version="21.6.2" etag="IE5OBPamLEjqQaEhEC8A" type="github">
  <diagram name="第 1 页" id="RWMY18C0qg8oQeJNFNUj">
    <mxGraphModel>
      <root>
        <mxCell id="0" />
        <mxCell id="1" parent="0" />
      </root>
    </mxGraphModel>
  </diagram>
</mxfile>
